<svg width="1157" height="178" viewBox="0 0 1157 178" fill="none" xmlns="http://www.w3.org/2000/svg">
<g style="mix-blend-mode:darken">
<path d="M0.515625 175V3.20312H59.6953C73.0547 3.20312 83.25 4.02344 90.2812 5.66406C100.125 7.92969 108.523 12.0312 115.477 17.9688C124.539 25.625 131.297 35.4297 135.75 47.3828C140.281 59.2578 142.547 72.8516 142.547 88.1641C142.547 101.211 141.023 112.773 137.977 122.852C134.93 132.93 131.023 141.289 126.258 147.93C121.492 154.492 116.258 159.688 110.555 163.516C104.93 167.266 98.0938 170.117 90.0469 172.07C82.0781 174.023 72.8984 175 62.5078 175H0.515625ZM23.25 154.727H59.9297C71.2578 154.727 80.125 153.672 86.5312 151.562C93.0156 149.453 98.1719 146.484 102 142.656C107.391 137.266 111.57 130.039 114.539 120.977C117.586 111.836 119.109 100.781 119.109 87.8125C119.109 69.8438 116.141 56.0547 110.203 46.4453C104.344 36.7578 97.1953 30.2734 88.7578 26.9922C82.6641 24.6484 72.8594 23.4766 59.3438 23.4766H23.25V154.727ZM222.352 175V102.227L156.141 3.20312H183.797L217.664 55C223.914 64.6875 229.734 74.375 235.125 84.0625C240.281 75.0781 246.531 64.9609 253.875 53.7109L287.156 3.20312H313.641L245.086 102.227V175H222.352ZM326.297 119.805L347.742 117.93C348.758 126.523 351.102 133.594 354.773 139.141C358.523 144.609 364.305 149.062 372.117 152.5C379.93 155.859 388.719 157.539 398.484 157.539C407.156 157.539 414.812 156.25 421.453 153.672C428.094 151.094 433.016 147.578 436.219 143.125C439.5 138.594 441.141 133.672 441.141 128.359C441.141 122.969 439.578 118.281 436.453 114.297C433.328 110.234 428.172 106.836 420.984 104.102C416.375 102.305 406.18 99.5312 390.398 95.7812C374.617 91.9531 363.562 88.3594 357.234 85C349.031 80.7031 342.898 75.3906 338.836 69.0625C334.852 62.6562 332.859 55.5078 332.859 47.6172C332.859 38.9453 335.32 30.8594 340.242 23.3594C345.164 15.7812 352.352 10.0391 361.805 6.13281C371.258 2.22656 381.766 0.273438 393.328 0.273438C406.062 0.273438 417.273 2.34375 426.961 6.48438C436.727 10.5469 444.227 16.5625 449.461 24.5312C454.695 32.5 457.508 41.5234 457.898 51.6016L436.102 53.2422C434.93 42.3828 430.945 34.1797 424.148 28.6328C417.43 23.0859 407.469 20.3125 394.266 20.3125C380.516 20.3125 370.477 22.8516 364.148 27.9297C357.898 32.9297 354.773 38.9844 354.773 46.0938C354.773 52.2656 357 57.3438 361.453 61.3281C365.828 65.3125 377.234 69.4141 395.672 73.6328C414.188 77.7734 426.883 81.4062 433.758 84.5312C443.758 89.1406 451.141 95 455.906 102.109C460.672 109.141 463.055 117.266 463.055 126.484C463.055 135.625 460.438 144.258 455.203 152.383C449.969 160.43 442.43 166.719 432.586 171.25C422.82 175.703 411.805 177.93 399.539 177.93C383.992 177.93 370.945 175.664 360.398 171.133C349.93 166.602 341.688 159.805 335.672 150.742C329.734 141.602 326.609 131.289 326.297 119.805ZM493.172 175V3.20312H515.906V154.727H600.516V175H493.172ZM628.172 175V3.20312H752.391V23.4766H650.906V76.0938H745.945V96.25H650.906V154.727H756.375V175H628.172ZM770.32 175L836.766 85.4688L778.172 3.20312H805.242L836.414 47.2656C842.898 56.4062 847.508 63.4375 850.242 68.3594C854.07 62.1094 858.602 55.5859 863.836 48.7891L898.406 3.20312H923.133L862.781 84.1797L927.82 175H899.695L856.453 113.711C854.031 110.195 851.531 106.367 848.953 102.227C845.125 108.477 842.391 112.773 840.75 115.117L797.625 175H770.32ZM951.727 175V3.20312H974.461V175H951.727ZM995.789 175L1061.77 3.20312H1086.26L1156.57 175H1130.67L1110.63 122.969H1038.8L1019.93 175H995.789ZM1045.36 104.453H1103.6L1085.67 56.875C1080.2 42.4219 1076.14 30.5469 1073.48 21.25C1071.3 32.2656 1068.21 43.2031 1064.23 54.0625L1045.36 104.453Z" fill="#FAFF00"/>
</g>
</svg>
