<svg width="348" height="54" viewBox="0 0 348 54" fill="none" xmlns="http://www.w3.org/2000/svg">
<path d="M0.554688 53V1.46094H18.3086C22.3164 1.46094 25.375 1.70703 27.4844 2.19922C30.4375 2.87891 32.957 4.10937 35.043 5.89062C37.7617 8.1875 39.7891 11.1289 41.125 14.7148C42.4844 18.2773 43.1641 22.3555 43.1641 26.9492C43.1641 30.8633 42.707 34.332 41.793 37.3555C40.8789 40.3789 39.707 42.8867 38.2773 44.8789C36.8477 46.8477 35.2773 48.4062 33.5664 49.5547C31.8789 50.6797 29.8281 51.5352 27.4141 52.1211C25.0234 52.707 22.2695 53 19.1523 53H0.554688ZM7.375 46.918H18.3789C21.7773 46.918 24.4375 46.6016 26.3594 45.9688C28.3047 45.3359 29.8516 44.4453 31 43.2969C32.6172 41.6797 33.8711 39.5117 34.7617 36.793C35.6758 34.0508 36.1328 30.7344 36.1328 26.8438C36.1328 21.4531 35.2422 17.3164 33.4609 14.4336C31.7031 11.5273 29.5586 9.58203 27.0273 8.59766C25.1992 7.89453 22.2578 7.54297 18.2031 7.54297H7.375V46.918ZM67.1055 53V31.168L47.2422 1.46094H55.5391L65.6992 17C67.5742 19.9062 69.3203 22.8125 70.9375 25.7188C72.4844 23.0234 74.3594 19.9883 76.5625 16.6133L86.5469 1.46094H94.4922L73.9258 31.168V53H67.1055ZM98.2891 36.4414L104.723 35.8789C105.027 38.457 105.73 40.5781 106.832 42.2422C107.957 43.8828 109.691 45.2188 112.035 46.25C114.379 47.2578 117.016 47.7617 119.945 47.7617C122.547 47.7617 124.844 47.375 126.836 46.6016C128.828 45.8281 130.305 44.7734 131.266 43.4375C132.25 42.0781 132.742 40.6016 132.742 39.0078C132.742 37.3906 132.273 35.9844 131.336 34.7891C130.398 33.5703 128.852 32.5508 126.695 31.7305C125.312 31.1914 122.254 30.3594 117.52 29.2344C112.785 28.0859 109.469 27.0078 107.57 26C105.109 24.7109 103.27 23.1172 102.051 21.2188C100.855 19.2969 100.258 17.1523 100.258 14.7852C100.258 12.1836 100.996 9.75781 102.473 7.50781C103.949 5.23437 106.105 3.51172 108.941 2.33984C111.777 1.16797 114.93 0.582031 118.398 0.582031C122.219 0.582031 125.582 1.20313 128.488 2.44531C131.418 3.66406 133.668 5.46875 135.238 7.85938C136.809 10.25 137.652 12.957 137.77 15.9805L131.23 16.4727C130.879 13.2148 129.684 10.7539 127.645 9.08984C125.629 7.42578 122.641 6.59375 118.68 6.59375C114.555 6.59375 111.543 7.35547 109.645 8.87891C107.77 10.3789 106.832 12.1953 106.832 14.3281C106.832 16.1797 107.5 17.7031 108.836 18.8984C110.148 20.0938 113.57 21.3242 119.102 22.5898C124.656 23.832 128.465 24.9219 130.527 25.8594C133.527 27.2422 135.742 29 137.172 31.1328C138.602 33.2422 139.316 35.6797 139.316 38.4453C139.316 41.1875 138.531 43.7773 136.961 46.2148C135.391 48.6289 133.129 50.5156 130.176 51.875C127.246 53.2109 123.941 53.8789 120.262 53.8789C115.598 53.8789 111.684 53.1992 108.52 51.8398C105.379 50.4805 102.906 48.4414 101.102 45.7227C99.3203 42.9805 98.3828 39.8867 98.2891 36.4414ZM148.352 53V1.46094H155.172V46.918H180.555V53H148.352ZM188.852 53V1.46094H226.117V7.54297H195.672V23.3281H224.184V29.375H195.672V46.918H227.312V53H188.852ZM231.496 53L251.43 26.1406L233.852 1.46094H241.973L251.324 14.6797C253.27 17.4219 254.652 19.5312 255.473 21.0078C256.621 19.1328 257.98 17.1758 259.551 15.1367L269.922 1.46094H277.34L259.234 25.7539L278.746 53H270.309L257.336 34.6133C256.609 33.5586 255.859 32.4102 255.086 31.168C253.938 33.043 253.117 34.332 252.625 35.0352L239.688 53H231.496ZM285.918 53V1.46094H292.738V53H285.918ZM299.137 53L318.93 1.46094H326.277L347.371 53H339.602L333.59 37.3906H312.039L306.379 53H299.137ZM314.008 31.8359H331.48L326.102 17.5625C324.461 13.2266 323.242 9.66406 322.445 6.875C321.789 10.1797 320.863 13.4609 319.668 16.7188L314.008 31.8359Z" fill="black"/>
</svg>
